<svg width="125" height="29" viewBox="0 0 125 29" fill="none" xmlns="http://www.w3.org/2000/svg">
<path d="M12.5 0L15.3064 10.0193L24.3882 10.0193L17.0409 16.2115L19.8473 26.2307L12.5 20.0385L5.15268 26.2307L7.95911 16.2115L0.611794 10.0193L9.69357 10.0193L12.5 0Z" fill="#8EDAD3"/>
<path d="M37.5 0L40.3064 10.0193L49.3882 10.0193L42.0409 16.2115L44.8473 26.2307L37.5 20.0385L30.1527 26.2307L32.9591 16.2115L25.6118 10.0193L34.6936 10.0193L37.5 0Z" fill="#8EDAD3"/>
<path d="M62.5 0L65.3064 10.0193L74.3882 10.0193L67.0409 16.2115L69.8473 26.2307L62.5 20.0385L55.1527 26.2307L57.9591 16.2115L50.6118 10.0193L59.6936 10.0193L62.5 0Z" fill="#8EDAD3"/>
<path d="M87.5 0L90.3064 10.0193L99.3882 10.0193L92.0409 16.2115L94.8473 26.2307L87.5 20.0385L80.1527 26.2307L82.9591 16.2115L75.6118 10.0193L84.6936 10.0193L87.5 0Z" fill="#8EDAD3"/>
<path d="M112.5 0L115.306 10.0193L124.388 10.0193L117.041 16.2115L119.847 26.2307L112.5 20.0385L105.153 26.2307L107.959 16.2115L100.612 10.0193L109.694 10.0193L112.5 0Z" fill="#8EDAD3"/>
</svg>
