<svg width="30" height="31" viewBox="0 0 30 31" fill="none" xmlns="http://www.w3.org/2000/svg">
<path d="M15.0058 7.63864C10.7469 7.63864 7.31164 11.1455 7.31164 15.4931C7.31164 19.8408 10.7469 23.3476 15.0058 23.3476C19.2647 23.3476 22.7 19.8408 22.7 15.4931C22.7 11.1455 19.2647 7.63864 15.0058 7.63864ZM15.0058 20.5996C12.2536 20.5996 10.0036 18.3095 10.0036 15.4931C10.0036 12.6767 12.2469 10.3867 15.0058 10.3867C17.7647 10.3867 20.008 12.6767 20.008 15.4931C20.008 18.3095 17.758 20.5996 15.0058 20.5996ZM24.8093 7.31735C24.8093 8.33591 24.0058 9.14938 23.0147 9.14938C22.0169 9.14938 21.2201 8.32907 21.2201 7.31735C21.2201 6.30563 22.0236 5.48532 23.0147 5.48532C24.0058 5.48532 24.8093 6.30563 24.8093 7.31735ZM29.9053 9.17673C29.7915 6.72263 29.2424 4.5488 27.4812 2.75778C25.7267 0.966766 23.5973 0.406219 21.1933 0.283173C18.7156 0.139618 11.2893 0.139618 8.81163 0.283173C6.41432 0.399384 4.28486 0.95993 2.52371 2.75095C0.762553 4.54196 0.220144 6.71579 0.099609 9.16989C-0.0410155 11.6992 -0.0410155 19.2802 0.099609 21.8095C0.213448 24.2636 0.762553 26.4375 2.52371 28.2285C4.28486 30.0195 6.40762 30.58 8.81163 30.7031C11.2893 30.8466 18.7156 30.8466 21.1933 30.7031C23.5973 30.5869 25.7267 30.0263 27.4812 28.2285C29.2357 26.4375 29.7848 24.2636 29.9053 21.8095C30.0459 19.2802 30.0459 11.706 29.9053 9.17673ZM26.7044 24.5234C26.1821 25.8633 25.1709 26.8955 23.8518 27.4355C21.8763 28.2353 17.1888 28.0508 15.0058 28.0508C12.8228 28.0508 8.1286 28.2285 6.15985 27.4355C4.84736 26.9023 3.8362 25.8701 3.30719 24.5234C2.52371 22.5068 2.70451 17.7216 2.70451 15.4931C2.70451 13.2646 2.5304 8.47263 3.30719 6.46286C3.82951 5.12302 4.84066 4.09079 6.15985 3.55075C8.13529 2.75095 12.8228 2.93552 15.0058 2.93552C17.1888 2.93552 21.883 2.75778 23.8518 3.55075C25.1643 4.08395 26.1754 5.11618 26.7044 6.46286C27.4879 8.47946 27.3071 13.2646 27.3071 15.4931C27.3071 17.7216 27.4879 22.5136 26.7044 24.5234Z" fill="#00625B"/>
</svg>
