<svg width="38" height="41" viewBox="0 0 38 41" fill="none" xmlns="http://www.w3.org/2000/svg">
<g clip-path="url(#clip0)" filter="url(#filter0_d)">
<path d="M19.0059 9.63867C14.747 9.63867 11.3117 13.1455 11.3117 17.4932C11.3117 21.8408 14.747 25.3477 19.0059 25.3477C23.2648 25.3477 26.7 21.8408 26.7 17.4932C26.7 13.1455 23.2648 9.63867 19.0059 9.63867ZM19.0059 22.5996C16.2536 22.5996 14.0037 20.3096 14.0037 17.4932C14.0037 14.6768 16.2469 12.3867 19.0059 12.3867C21.7648 12.3867 24.0081 14.6768 24.0081 17.4932C24.0081 20.3096 21.7581 22.5996 19.0059 22.5996ZM28.8094 9.31738C28.8094 10.3359 28.0058 11.1494 27.0148 11.1494C26.017 11.1494 25.2201 10.3291 25.2201 9.31738C25.2201 8.30566 26.0237 7.48535 27.0148 7.48535C28.0058 7.48535 28.8094 8.30566 28.8094 9.31738ZM33.9054 11.1768C33.7915 8.72266 33.2424 6.54883 31.4813 4.75781C29.7268 2.9668 27.5974 2.40625 25.1933 2.2832C22.7157 2.13965 15.2894 2.13965 12.8117 2.2832C10.4144 2.39941 8.28492 2.95996 6.52377 4.75098C4.76261 6.54199 4.22021 8.71582 4.09967 11.1699C3.95905 13.6992 3.95905 21.2803 4.09967 23.8096C4.21351 26.2637 4.76261 28.4375 6.52377 30.2285C8.28492 32.0195 10.4077 32.5801 12.8117 32.7031C15.2894 32.8467 22.7157 32.8467 25.1933 32.7031C27.5974 32.5869 29.7268 32.0264 31.4813 30.2285C33.2357 28.4375 33.7848 26.2637 33.9054 23.8096C34.046 21.2803 34.046 13.7061 33.9054 11.1768ZM30.7045 26.5234C30.1822 27.8633 29.171 28.8955 27.8518 29.4355C25.8764 30.2354 21.1889 30.0508 19.0059 30.0508C16.8228 30.0508 12.1287 30.2285 10.1599 29.4355C8.84742 28.9023 7.83626 27.8701 7.30725 26.5234C6.52377 24.5068 6.70457 19.7217 6.70457 17.4932C6.70457 15.2646 6.53046 10.4727 7.30725 8.46289C7.82957 7.12305 8.84072 6.09082 10.1599 5.55078C12.1354 4.75098 16.8228 4.93555 19.0059 4.93555C21.1889 4.93555 25.8831 4.75781 27.8518 5.55078C29.1643 6.08398 30.1755 7.11621 30.7045 8.46289C31.488 10.4795 31.3072 15.2646 31.3072 17.4932C31.3072 19.7217 31.488 24.5137 30.7045 26.5234Z" fill="white"/>
</g>
<defs>
<filter id="filter0_d" x="0" y="0" width="38" height="43" filterUnits="userSpaceOnUse" color-interpolation-filters="sRGB">
<feFlood flood-opacity="0" result="BackgroundImageFix"/>
<feColorMatrix in="SourceAlpha" type="matrix" values="0 0 0 0 0 0 0 0 0 0 0 0 0 0 0 0 0 0 127 0"/>
<feOffset dy="4"/>
<feGaussianBlur stdDeviation="2"/>
<feColorMatrix type="matrix" values="0 0 0 0 0 0 0 0 0 0 0 0 0 0 0 0 0 0 0.25 0"/>
<feBlend mode="normal" in2="BackgroundImageFix" result="effect1_dropShadow"/>
<feBlend mode="normal" in="SourceGraphic" in2="effect1_dropShadow" result="shape"/>
</filter>
<clipPath id="clip0">
<rect width="30" height="35" fill="white" transform="translate(4)"/>
</clipPath>
</defs>
</svg>
