<svg width="68" height="67" viewBox="0 0 68 67" fill="none" xmlns="http://www.w3.org/2000/svg">
<path d="M50.4367 66.0994C50.7983 66.8886 51.6126 67.063 52.2471 66.4858L56.2778 62.8192C56.9123 62.242 57.2849 61.0757 57.1079 60.2275L50.2196 27.4053C50.0414 26.5582 50.4152 25.3907 51.0485 24.8146L65.1295 12.0055C65.764 11.4284 66.5854 10.322 66.9557 9.54472C66.9557 9.54472 68.9185 5.42651 67.2352 2.87616C67.0626 2.59678 66.8661 2.33269 66.648 2.0869L66.6373 2.0752C66.3816 1.79593 66.0996 1.54187 65.7955 1.31659L65.5102 1.11425L65.0435 0.83755C62.742 -0.464139 59.2123 0.997731 59.2123 0.997731C58.2714 1.42021 57.397 1.97516 56.6154 2.64597L42.5344 15.455C41.8999 16.0322 40.7036 16.293 39.8759 16.0368L7.85155 6.08006C7.02389 5.82378 5.82756 6.08461 5.19308 6.66178L1.16235 10.3284C0.52786 10.9056 0.624595 11.7327 1.37732 12.1662L27.4159 27.1746C28.1674 27.6091 28.2642 28.4362 27.6297 29.0134L16.6323 39.0174C15.9978 39.5946 14.7829 39.93 13.9339 39.7616L9.30089 38.8447C8.45192 38.6762 7.23703 39.0117 6.60254 39.5889L3.90654 42.0413C3.27206 42.6185 3.35681 43.4672 4.09409 43.9254L12.5726 49.2016C13.3098 49.6598 14.2315 50.673 14.6181 51.4503L19.0768 60.3959C19.4634 61.1732 20.3003 61.3376 20.9348 60.7605L23.6319 58.307C24.2664 57.7298 24.715 56.552 24.6275 55.6909L24.152 50.992C24.0655 50.1321 24.5131 48.9531 25.1476 48.3759L36.145 38.3719C36.7795 37.7947 37.5937 37.9691 37.9542 38.7594L50.4367 66.0994Z" fill="#B5F0EB"/>
</svg>
