<svg width="162" height="171" viewBox="0 0 162 171" fill="none" xmlns="http://www.w3.org/2000/svg">
<path d="M159.652 61.0417C161.677 60.3683 162.294 58.4067 161.021 56.68L152.937 45.7109C151.664 43.9842 148.882 42.7403 146.755 42.9416L64.4448 50.8235C62.3204 51.0279 59.5359 49.7808 58.2655 48.0573L30.0221 9.7377C28.7494 8.01103 26.2186 5.6759 24.3928 4.54589C24.3928 4.54589 14.7192 -1.44411 8.05801 2.00237C7.331 2.35096 6.63611 2.76263 5.98122 3.23268L5.94999 3.25571C5.20405 3.80949 4.51403 4.43489 3.88968 5.12309L3.32611 5.77102L2.53768 6.84631C-1.19576 12.1658 1.58291 21.2852 1.58291 21.2852C2.40424 23.7253 3.56675 26.038 5.03563 28.154L33.2791 66.4736C34.5517 68.2002 34.9165 71.2259 34.0948 73.1978L2.2021 149.484C1.38042 151.456 1.74515 154.482 3.0178 156.208L11.1026 167.178C12.3752 168.904 14.4316 168.895 15.6717 167.158L58.6032 107.051C59.8456 105.317 61.902 105.308 63.1747 107.035L85.2331 136.963C86.5057 138.689 87.0496 141.782 86.439 143.83L83.1127 155.013C82.502 157.061 83.0459 160.154 84.3186 161.88L89.7262 169.217C90.9988 170.944 93.1055 170.971 94.4029 169.278L109.339 149.815C110.637 148.122 113.341 146.128 115.342 145.39L138.373 136.87C140.374 136.132 140.972 134.111 139.699 132.385L134.289 125.045C133.017 123.318 130.224 121.883 128.086 121.86L116.42 121.728C114.286 121.702 111.49 120.27 110.217 118.543L88.1588 88.6153C86.8862 86.8886 87.5033 84.927 89.5302 84.2567L159.652 61.0417Z" fill="#4DB6AC"/>
</svg>
