<svg width="87" height="115" viewBox="0 0 87 115" fill="none" xmlns="http://www.w3.org/2000/svg">
<path d="M66.7159 113.579C67.4472 114.826 68.8406 114.945 69.8138 113.841L75.9961 106.828C76.9693 105.724 77.4101 103.687 76.9793 102.302L60.2424 48.6849C59.8098 47.3013 60.2524 45.2623 61.2238 44.1604L82.8214 19.6608C83.7945 18.5568 84.9977 16.5248 85.496 15.1414C85.496 15.1414 88.1384 7.81136 84.9121 3.89002C84.5784 3.45794 84.2071 3.05661 83.8024 2.69061L83.7827 2.67325C83.3096 2.25909 82.7965 1.8928 82.2508 1.57957L81.7403 1.30081L80.9137 0.93593C76.8476 -0.75799 71.1577 2.44801 71.1577 2.44801C69.6461 3.35766 68.267 4.47546 67.0617 5.76794L45.4642 30.2675C44.491 31.3715 42.5255 32.0643 41.0967 31.8107L-14.194 21.9283C-15.6228 21.6746 -17.5884 22.3674 -18.5616 23.4714L-24.7439 30.4845C-25.7171 31.5884 -25.4243 32.9559 -24.0932 33.5229L21.9543 53.1598C23.2837 53.7288 23.5765 55.0963 22.6033 56.2003L5.73547 75.3347C4.76229 76.4387 2.77736 77.2607 1.32667 77.1589L-6.58971 76.608C-8.0404 76.5063 -10.0253 77.3283 -10.9985 78.4322L-15.1336 83.123C-16.1068 84.2269 -15.8307 85.6332 -14.5216 86.2451L0.533515 93.2924C1.8426 93.9042 3.54858 95.4081 4.31977 96.6301L13.2114 110.693C13.9826 111.915 15.4124 112.013 16.3856 110.909L20.5225 106.216C21.4957 105.112 22.0622 103.04 21.7794 101.613L20.24 93.8283C19.9591 92.4036 20.5237 90.3295 21.4969 89.2255L38.3647 70.0911C39.3379 68.9871 40.7313 69.1062 41.4608 70.3556L66.7159 113.579Z" fill="#4DB6AC"/>
</svg>
